<!DOCTYPE svg PUBLIC "-//W3C//DTD SVG 1.1//EN" "http://www.w3.org/Graphics/SVG/1.1/DTD/svg11.dtd">
<!-- Uploaded to: SVG Repo, www.svgrepo.com, Transformed by: SVG Repo Mixer Tools -->
<svg fill="#ffffff" height="800px" width="800px" version="1.1" id="Layer_1" xmlns="http://www.w3.org/2000/svg" xmlns:xlink="http://www.w3.org/1999/xlink" viewBox="0 0 511.355 511.355" xml:space="preserve" stroke="#ffffff">
<g id="SVGRepo_bgCarrier" stroke-width="0"/>
<g id="SVGRepo_tracerCarrier" stroke-linecap="round" stroke-linejoin="round"/>
<g id="SVGRepo_iconCarrier"> <g> <g> <path d="M475.074,72.424c-35.157-37.675-74.048-56.768-115.605-56.768c-42.197,0-78.976,18.923-103.744,52.139 c-24.725-33.216-61.376-52.139-103.445-52.139c-41.344,0-79.083,18.496-115.456,56.576 C-5.545,116.67-23.956,218.536,51.756,294.248C84.78,327.272,238.935,487.55,240.492,489.15c4.032,4.181,9.6,6.549,15.381,6.549 c5.781,0,11.349-2.368,15.381-6.549c1.557-1.6,155.712-161.877,188.736-194.901C534.978,219.262,516.93,117.224,475.074,72.424z"/> </g> </g> </g>
</svg>